<svg aria-hidden="true" style="position: absolute; width: 0; height: 0; overflow: hidden;" version="1.1" xmlns="http://www.w3.org/2000/svg" xmlns:xlink="http://www.w3.org/1999/xlink">
<defs>

<symbol id="search" viewBox="0 0 32 32">
   <path d="M28.579 14.674c0 7.477-6.132 13.538-13.697 13.538s-13.697-6.061-13.697-13.538c0-7.477 6.132-13.538 13.697-13.538s13.697 6.061 13.697 13.538z" stroke-linejoin="round" stroke-linecap="round" stroke-miterlimit="4" stroke-width="2.2857"/>
   <path d="M24.409 24.794l5.37 5.294" stroke-linejoin="round" stroke-linecap="round" stroke-miterlimit="4" stroke-width="2.2857" />
</symbol>

<symbol id="cart" viewBox="0 0 34 32">
    <path stroke-linejoin="round" stroke-linecap="round" stroke-miterlimit="4" stroke-width="2.4" d="M1.6 1.881l3.328 0.569 1.541 18.144c0.123 1.482 1.376 2.619 2.88 2.614h17.454c1.435 0.003 2.653-1.041 2.856-2.445l1.518-10.371c0.17-1.159-0.645-2.235-1.816-2.402-0.102-0.014-23.899-0.022-23.899-0.022"></path>
    <path stroke-linejoin="round" stroke-linecap="round" stroke-miterlimit="4" stroke-width="2.4" d="M19.8 13.813h4.437"></path>
    <path stroke-linejoin="round" stroke-linecap="round" stroke-miterlimit="4" stroke-width="2.4" d="M8.647 28.691c0.482 0 0.87 0.386 0.87 0.861 0 0.476-0.389 0.862-0.87 0.862s-0.87-0.386-0.87-0.862c0-0.475 0.389-0.861 0.87-0.861z"></path>
    <path stroke-linejoin="round" stroke-linecap="round" stroke-miterlimit="4" stroke-width="2.4" d="M26.695 28.691c0.482 0 0.872 0.386 0.872 0.861 0 0.476-0.39 0.862-0.872 0.862s-0.87-0.386-0.87-0.862c0-0.475 0.389-0.861 0.87-0.861z"></path>
</symbol>

</defs>
</svg>
