<svg aria-hidden="true" style="position: absolute; width: 0; height: 0; overflow: hidden;" version="1.1" xmlns="http://www.w3.org/2000/svg" xmlns:xlink="http://www.w3.org/1999/xlink">
<defs>

<symbol id="search" viewBox="0 0 32 32">
   <path d="M28.579 14.674c0 7.477-6.132 13.538-13.697 13.538s-13.697-6.061-13.697-13.538c0-7.477 6.132-13.538 13.697-13.538s13.697 6.061 13.697 13.538z" stroke-linejoin="round" stroke-linecap="round" stroke-miterlimit="4" stroke-width="2.2857"/>
   <path d="M24.409 24.794l5.37 5.294" stroke-linejoin="round" stroke-linecap="round" stroke-miterlimit="4" stroke-width="2.2857" />
</symbol>

<symbol id="cart" viewBox="0 0 34 32">
    <path stroke-linejoin="round" stroke-linecap="round" stroke-miterlimit="4" stroke-width="2.4" d="M1.6 1.881l3.328 0.569 1.541 18.144c0.123 1.482 1.376 2.619 2.88 2.614h17.454c1.435 0.003 2.653-1.041 2.856-2.445l1.518-10.371c0.17-1.159-0.645-2.235-1.816-2.402-0.102-0.014-23.899-0.022-23.899-0.022"></path>
    <path stroke-linejoin="round" stroke-linecap="round" stroke-miterlimit="4" stroke-width="2.4" d="M19.8 13.813h4.437"></path>
    <path stroke-linejoin="round" stroke-linecap="round" stroke-miterlimit="4" stroke-width="2.4" d="M8.647 28.691c0.482 0 0.87 0.386 0.87 0.861 0 0.476-0.389 0.862-0.87 0.862s-0.87-0.386-0.87-0.862c0-0.475 0.389-0.861 0.87-0.861z"></path>
    <path stroke-linejoin="round" stroke-linecap="round" stroke-miterlimit="4" stroke-width="2.4" d="M26.695 28.691c0.482 0 0.872 0.386 0.872 0.861 0 0.476-0.39 0.862-0.872 0.862s-0.87-0.386-0.87-0.862c0-0.475 0.389-0.861 0.87-0.861z"></path>
</symbol>









<symbol id="vector" viewBox="0 0 32 32">
<path d="M19.878 30.507c-0.553 0-1.064-0.295-1.313-0.767l-4.355-8.231c-0.239-0.452-0.198-0.993 0.106-1.41l7.030-9.005-9.531 6.642c-0.442 0.288-1.014 0.324-1.492 0.1l-8.709-4.114c-0.522-0.248-0.841-0.765-0.809-1.317 0.031-0.552 0.408-1.034 0.957-1.224l27.881-9.707c0.536-0.184 1.139-0.064 1.545 0.32 0.405 0.381 0.537 0.953 0.339 1.46l-10.272 26.347c-0.203 0.519-0.712 0.875-1.296 0.904-0.026 0.001-0.054 0.003-0.081 0.003z"></path>
</symbol>

<symbol id="location" viewBox="0 0 29 32">
<path d="M18.4 13.601c0-2.21-1.791-4.001-3.999-4.001-2.21 0-4.001 1.791-4.001 4.001 0 2.208 1.791 3.999 4.001 3.999 2.208 0 3.999-1.791 3.999-3.999z" stroke-linejoin="round" stroke-linecap="round" stroke-miterlimit="4" stroke-width="2.4"></path>
<path d="M14.399 30.4c-1.918 0-11.999-8.163-11.999-16.699 0-6.683 5.371-12.101 11.999-12.101s12.001 5.419 12.001 12.101c0 8.536-10.083 16.699-12.001 16.699z" stroke-linejoin="round" stroke-linecap="round" stroke-miterlimit="4" stroke-width="2.4"></path>
</symbol>

<symbol id="calling" viewBox="0 0 32 32">
<path d="M19.423 2.182c5.383 0.598 9.636 4.845 10.24 10.228" stroke-linejoin="round" stroke-linecap="round" stroke-miterlimit="4" stroke-width="2.1818"></path>
<path d="M19.423 7.335c2.576 0.5 4.589 2.515 5.091 5.091"    stroke-linejoin="round" stroke-linecap="round" stroke-miterlimit="4" stroke-width="2.1818"></path>
<path d="M14.591 16.687c5.802 5.801 7.118-0.91 10.813 2.782 3.561 3.561 5.61 4.274 1.096 8.785-0.565 0.454-4.156 5.919-16.777-6.698-12.622-12.619-7.161-16.214-6.706-16.779 4.523-4.524 5.226-2.465 8.788 1.096 3.693 3.693-3.015 5.014 2.787 10.815z" stroke-linejoin="round" stroke-linecap="round" stroke-miterlimit="4" stroke-width="2.1818"></path>
</symbol>

<symbol id="message" viewBox="0 0 35 32">
<path d="M27.044 10.962l-7.109 5.781c-1.343 1.066-3.233 1.066-4.576 0l-7.169-5.781" stroke-linejoin="round" stroke-linecap="round" stroke-miterlimit="4" stroke-width="2.4"></path>
<path d="M25.454 30.4c4.866 0.013 8.146-3.985 8.146-8.899v-10.989c0-4.914-3.28-8.912-8.146-8.912h-15.708c-4.866 0-8.146 3.998-8.146 8.912v10.989c0 4.914 3.28 8.912 8.146 8.899h15.708z" stroke-linejoin="round" stroke-linecap="round" stroke-miterlimit="4" stroke-width="2.4"></path>
</symbol>


<symbol id="facebook" viewBox="0 0 15 32">
<path d="M3.881 31.278v-14.677h-3.881v-5.284h3.881v-4.513c0-3.547 2.292-6.804 7.575-6.804 2.139 0 3.72 0.205 3.72 0.205l-0.125 4.935c0 0-1.613-0.016-3.373-0.016-1.905 0-2.21 0.878-2.21 2.335v3.858h5.734l-0.249 5.284h-5.485v14.677h-5.587z"></path>
</symbol>


<symbol id="instagram" viewBox="0 0 32 32">
<path d="M15.596 10.398c-2.865 0-5.202 2.338-5.202 5.202s2.338 5.202 5.202 5.202 5.202-2.338 5.202-5.202c0-2.865-2.338-5.202-5.202-5.202zM31.199 15.6c0-2.154 0.020-4.289-0.101-6.439-0.121-2.498-0.691-4.714-2.517-6.541-1.83-1.83-4.043-2.396-6.541-2.517-2.154-0.121-4.289-0.101-6.439-0.101-2.154 0-4.289-0.019-6.439 0.101-2.498 0.121-4.714 0.691-6.541 2.517-1.83 1.83-2.396 4.043-2.517 6.541-0.121 2.154-0.101 4.289-0.101 6.439s-0.019 4.289 0.101 6.439c0.121 2.498 0.691 4.714 2.517 6.541 1.83 1.83 4.043 2.396 6.541 2.517 2.154 0.121 4.289 0.101 6.439 0.101 2.154 0 4.289 0.020 6.439-0.101 2.498-0.121 4.714-0.691 6.541-2.517 1.83-1.83 2.396-4.043 2.517-6.541 0.125-2.15 0.101-4.285 0.101-6.439zM15.596 23.604c-4.429 0-8.004-3.575-8.004-8.004s3.575-8.004 8.004-8.004 8.004 3.575 8.004 8.004c0 4.429-3.575 8.004-8.004 8.004zM23.928 9.137c-1.034 0-1.869-0.835-1.869-1.869s0.835-1.869 1.869-1.869c1.034 0 1.869 0.835 1.869 1.869 0 0.246-0.048 0.489-0.142 0.716s-0.232 0.433-0.405 0.607c-0.174 0.174-0.38 0.311-0.607 0.405s-0.47 0.142-0.716 0.142z"></path>
</symbol>


<symbol id="twitter" viewBox="0 0 40 32">
<path d="M38.638 3.729c-1.421 0.613-2.967 1.054-4.56 1.226 1.654-0.982 2.892-2.534 3.483-4.365-1.552 0.923-3.252 1.57-5.024 1.913-0.741-0.792-1.637-1.423-2.632-1.854s-2.069-0.652-3.153-0.649c-4.388 0-7.917 3.557-7.917 7.922 0 0.613 0.074 1.226 0.195 1.816-6.57-0.344-12.43-3.483-16.326-8.288-0.71 1.212-1.082 2.593-1.077 3.998 0 2.749 1.398 5.173 3.529 6.598-1.256-0.049-2.483-0.395-3.58-1.008v0.098c0 3.849 2.721 7.039 6.348 7.773-0.681 0.177-1.381 0.267-2.085 0.269-0.515 0-1.003-0.051-1.495-0.121 1.003 3.139 3.924 5.419 7.402 5.493-2.721 2.131-6.129 3.385-9.83 3.385-0.664 0-1.277-0.023-1.913-0.098 3.51 2.252 7.676 3.552 12.161 3.552 14.562 0 22.53-12.063 22.53-22.534 0-0.344 0-0.687-0.023-1.031 1.542-1.128 2.893-2.526 3.97-4.095z"></path>
</symbol>

</defs>
</svg>
